<svg width="767" height="457" viewBox="0 0 767 457" fill="none" xmlns="http://www.w3.org/2000/svg">
<path d="M188.822 316.971L139.091 418.265C138.31 419.827 137.138 421.072 135.575 422C134.062 422.977 132.377 423.465 130.521 423.465C128.715 423.465 127.03 422.977 125.468 422C123.954 421.072 122.782 419.827 121.952 418.265L72.2939 316.971H93.6074L130.521 392.63L167.582 316.971H188.822ZM216.801 326.565H197.758V309.354H216.801V326.565ZM216.801 422H197.758V342.825H216.801V422ZM321.244 429.617C321.244 432.889 320.829 435.818 319.999 438.406C319.169 441.043 318.07 443.338 316.703 445.291C315.336 447.293 313.749 448.978 311.942 450.345C310.136 451.761 308.231 452.908 306.229 453.787C304.276 454.666 302.274 455.301 300.224 455.691C298.222 456.131 296.317 456.351 294.511 456.351H260.16V437.308H294.511C297.099 437.308 299.027 436.648 300.297 435.33C301.566 434.012 302.201 432.107 302.201 429.617V369.485C302.201 366.995 301.566 365.115 300.297 363.846C299.027 362.527 297.099 361.868 294.511 361.868H260.16C257.816 361.868 255.961 362.601 254.594 364.065C253.227 365.481 252.543 367.288 252.543 369.485V395.267C252.543 397.757 253.202 399.661 254.521 400.979C255.839 402.298 257.768 402.957 260.307 402.957H294.511V422H260.16C258.354 422 256.449 421.805 254.447 421.414C252.445 420.975 250.443 420.315 248.441 419.437C246.488 418.558 244.608 417.435 242.802 416.067C240.995 414.651 239.408 412.967 238.041 411.014C236.674 409.012 235.575 406.717 234.745 404.129C233.915 401.492 233.5 398.538 233.5 395.267V369.485C233.5 367.679 233.695 365.774 234.086 363.772C234.525 361.771 235.185 359.793 236.063 357.84C236.942 355.838 238.065 353.934 239.433 352.127C240.849 350.32 242.533 348.733 244.486 347.366C246.488 345.999 248.783 344.9 251.371 344.07C253.959 343.24 256.889 342.825 260.16 342.825H294.511C296.317 342.825 298.222 343.045 300.224 343.484C302.274 343.875 304.276 344.51 306.229 345.389C308.231 346.268 310.136 347.415 311.942 348.831C313.749 350.198 315.336 351.883 316.703 353.885C318.07 355.838 319.169 358.108 319.999 360.696C320.829 363.284 321.244 366.214 321.244 369.485V429.617ZM358.012 326.565H338.969V309.354H358.012V326.565ZM358.012 422H338.969V342.825H358.012V422ZM411.112 422H402.616C399.882 422 396.952 421.536 393.827 420.608C390.751 419.681 387.87 418.167 385.185 416.067C382.499 413.919 380.277 411.16 378.52 407.791C376.762 404.373 375.883 400.198 375.883 395.267V309.354H394.926V395.267C394.926 397.61 395.658 399.49 397.123 400.906C398.588 402.273 400.419 402.957 402.616 402.957H411.112V422ZM505.082 395.779C505.082 398.416 504.618 401.272 503.69 404.349C502.763 407.376 501.249 410.208 499.149 412.845C497.099 415.433 494.389 417.605 491.02 419.363C487.699 421.121 483.646 422 478.861 422H444.511C441.874 422 439.018 421.536 435.941 420.608C432.914 419.681 430.082 418.191 427.445 416.141C424.857 414.041 422.685 411.331 420.927 408.011C419.169 404.642 418.29 400.564 418.29 395.779C418.29 393.143 418.754 390.286 419.682 387.21C420.609 384.134 422.099 381.302 424.149 378.714C426.249 376.077 428.959 373.88 432.279 372.122C435.648 370.364 439.726 369.485 444.511 369.485H478.861V387.649H444.511C441.923 387.649 439.921 388.455 438.505 390.066C437.089 391.629 436.381 393.582 436.381 395.926C436.381 398.416 437.187 400.369 438.798 401.785C440.458 403.152 442.411 403.836 444.657 403.836H478.861C481.449 403.836 483.451 403.055 484.867 401.492C486.283 399.93 486.991 397.977 486.991 395.633V369.046C486.991 366.556 486.21 364.578 484.647 363.113C483.134 361.648 481.205 360.916 478.861 360.916H437.04V342.825H478.861C481.498 342.825 484.33 343.289 487.357 344.217C490.434 345.145 493.266 346.658 495.854 348.758C498.49 350.809 500.688 353.519 502.445 356.888C504.203 360.208 505.082 364.261 505.082 369.046V395.779ZM593.046 361.868H559.794V422H540.531V361.868H515.775V342.825H540.531V316.971H559.794V342.825H593.046V361.868ZM690.458 369.046C690.458 371.683 689.994 374.539 689.066 377.615C688.139 380.643 686.625 383.475 684.525 386.111C682.475 388.699 679.765 390.872 676.396 392.63C673.075 394.388 669.022 395.267 664.237 395.267H629.887V377.176H664.237C666.825 377.176 668.827 376.395 670.243 374.832C671.659 373.221 672.367 371.243 672.367 368.899C672.367 366.409 671.562 364.456 669.95 363.04C668.388 361.624 666.483 360.916 664.237 360.916H629.887C627.299 360.916 625.297 361.722 623.881 363.333C622.465 364.896 621.757 366.849 621.757 369.192V395.779C621.757 398.318 622.538 400.296 624.101 401.712C625.712 403.128 627.689 403.836 630.033 403.836H664.237V422H629.887C627.25 422 624.394 421.536 621.317 420.608C618.29 419.681 615.458 418.191 612.821 416.141C610.233 414.041 608.061 411.331 606.303 408.011C604.545 404.642 603.666 400.564 603.666 395.779V369.046C603.666 366.409 604.13 363.577 605.058 360.55C605.985 357.474 607.475 354.642 609.525 352.054C611.625 349.417 614.335 347.22 617.655 345.462C621.024 343.704 625.102 342.825 629.887 342.825H664.237C666.874 342.825 669.706 343.289 672.733 344.217C675.81 345.145 678.642 346.658 681.229 348.758C683.866 350.809 686.063 353.519 687.821 356.888C689.579 360.208 690.458 364.261 690.458 369.046Z" fill="black"/>
<path fill-rule="evenodd" clip-rule="evenodd" d="M528 0L511.436 33.7178L678 117L498.018 206.991C516.844 181.923 528 150.764 528 117C528 89.4604 520.578 63.6543 507.626 41.4727L399.967 260.62C397.956 264.641 394.939 267.844 390.916 270.231C387.02 272.744 382.683 274 377.906 274C373.255 274 368.918 272.744 364.895 270.231C360.998 267.844 357.981 264.641 355.844 260.62L248.358 41.5005C235.415 63.6763 228 89.4722 228 117C228 150.764 239.156 181.923 257.982 206.991L78 117L244.545 33.7275L228 0H282.871L377.906 194.665L473.317 0H528ZM413 102C413 121.33 397.33 137 378 137C358.67 137 343 121.33 343 102C343 82.6699 358.67 67 378 67C397.33 67 413 82.6699 413 102ZM366.5 82L374 89.5L366.5 97L359 89.5L366.5 82Z" fill="black"/>
</svg>
