<svg width="767" height="452" viewBox="0 0 767 452" fill="none" xmlns="http://www.w3.org/2000/svg">
<path d="M195.312 316.472L147.238 414.389C146.483 415.9 145.35 417.103 143.839 418C142.376 418.944 140.748 419.416 138.954 419.416C137.208 419.416 135.579 418.944 134.069 418C132.606 417.103 131.473 415.9 130.67 414.389L82.6675 316.472H103.271L138.954 389.609L174.779 316.472H195.312ZM222.357 325.747H203.949V309.108H222.357V325.747ZM222.357 418H203.949V341.464H222.357V418ZM323.319 425.363C323.319 428.526 322.918 431.358 322.116 433.859C321.313 436.408 320.251 438.627 318.93 440.515C317.608 442.45 316.074 444.078 314.328 445.4C312.581 446.769 310.74 447.878 308.805 448.728C306.917 449.577 304.982 450.191 303 450.568C301.064 450.993 299.223 451.206 297.477 451.206H264.271V432.797H297.477C299.979 432.797 301.843 432.16 303.07 430.886C304.298 429.611 304.911 427.771 304.911 425.363V367.236C304.911 364.829 304.298 363.011 303.07 361.784C301.843 360.51 299.979 359.873 297.477 359.873H264.271C262.006 359.873 260.212 360.581 258.891 361.997C257.569 363.365 256.908 365.112 256.908 367.236V392.158C256.908 394.565 257.545 396.406 258.82 397.68C260.094 398.955 261.959 399.592 264.413 399.592H297.477V418H264.271C262.525 418 260.684 417.811 258.749 417.434C256.814 417.009 254.879 416.372 252.943 415.522C251.055 414.672 249.238 413.587 247.492 412.265C245.745 410.896 244.211 409.268 242.89 407.38C241.568 405.445 240.506 403.226 239.704 400.725C238.901 398.176 238.5 395.32 238.5 392.158V367.236C238.5 365.489 238.689 363.649 239.066 361.713C239.491 359.778 240.128 357.867 240.978 355.979C241.828 354.043 242.913 352.202 244.235 350.456C245.604 348.71 247.232 347.176 249.12 345.854C251.055 344.532 253.274 343.47 255.775 342.668C258.277 341.866 261.109 341.464 264.271 341.464H297.477C299.223 341.464 301.064 341.677 303 342.102C304.982 342.479 306.917 343.093 308.805 343.942C310.74 344.792 312.581 345.901 314.328 347.27C316.074 348.592 317.608 350.22 318.93 352.155C320.251 354.043 321.313 356.238 322.116 358.74C322.918 361.241 323.319 364.073 323.319 367.236V425.363ZM358.861 325.747H340.453V309.108H358.861V325.747ZM358.861 418H340.453V341.464H358.861V418ZM410.192 418H401.979C399.336 418 396.504 417.552 393.483 416.655C390.509 415.758 387.724 414.295 385.128 412.265C382.532 410.188 380.385 407.521 378.686 404.265C376.986 400.961 376.137 396.925 376.137 392.158V309.108H394.545V392.158C394.545 394.423 395.253 396.241 396.669 397.609C398.085 398.931 399.855 399.592 401.979 399.592H410.192V418ZM501.029 392.653C501.029 395.202 500.581 397.963 499.684 400.937C498.787 403.863 497.324 406.601 495.294 409.15C493.312 411.652 490.692 413.752 487.436 415.451C484.226 417.15 480.308 418 475.683 418H442.477C439.928 418 437.167 417.552 434.193 416.655C431.267 415.758 428.529 414.318 425.98 412.336C423.479 410.306 421.378 407.687 419.679 404.477C417.98 401.22 417.13 397.279 417.13 392.653C417.13 390.104 417.579 387.343 418.476 384.37C419.372 381.396 420.812 378.658 422.794 376.157C424.824 373.608 427.444 371.484 430.653 369.785C433.91 368.085 437.851 367.236 442.477 367.236H475.683V384.794H442.477C439.975 384.794 438.04 385.573 436.671 387.131C435.303 388.641 434.618 390.529 434.618 392.795C434.618 395.202 435.397 397.09 436.955 398.459C438.559 399.781 440.447 400.441 442.619 400.441H475.683C478.184 400.441 480.119 399.686 481.488 398.176C482.857 396.665 483.542 394.777 483.542 392.512V366.811C483.542 364.404 482.786 362.492 481.276 361.076C479.813 359.66 477.948 358.952 475.683 358.952H435.255V341.464H475.683C478.231 341.464 480.969 341.913 483.896 342.81C486.869 343.706 489.607 345.17 492.108 347.199C494.657 349.182 496.781 351.801 498.48 355.058C500.18 358.268 501.029 362.185 501.029 366.811V392.653ZM586.061 359.873H553.917V418H535.297V359.873H511.366V341.464H535.297V316.472H553.917V341.464H586.061V359.873ZM680.226 366.811C680.226 369.36 679.778 372.121 678.881 375.095C677.984 378.021 676.521 380.759 674.491 383.308C672.509 385.809 669.889 387.91 666.632 389.609C663.423 391.308 659.505 392.158 654.879 392.158H621.674V374.67H654.879C657.381 374.67 659.316 373.915 660.685 372.404C662.054 370.847 662.738 368.935 662.738 366.669C662.738 364.262 661.959 362.374 660.402 361.005C658.891 359.637 657.051 358.952 654.879 358.952H621.674C619.172 358.952 617.237 359.731 615.868 361.289C614.499 362.799 613.815 364.687 613.815 366.953V392.653C613.815 395.108 614.57 397.019 616.081 398.388C617.638 399.757 619.55 400.441 621.815 400.441H654.879V418H621.674C619.125 418 616.364 417.552 613.39 416.655C610.464 415.758 607.726 414.318 605.177 412.336C602.676 410.306 600.575 407.687 598.876 404.477C597.177 401.22 596.327 397.279 596.327 392.653V366.811C596.327 364.262 596.776 361.525 597.672 358.598C598.569 355.625 600.009 352.887 601.991 350.385C604.021 347.836 606.64 345.712 609.85 344.013C613.107 342.314 617.048 341.464 621.674 341.464H654.879C657.428 341.464 660.166 341.913 663.092 342.81C666.066 343.706 668.804 345.17 671.305 347.199C673.854 349.182 675.978 351.801 677.677 355.058C679.376 358.268 680.226 362.185 680.226 366.811Z" fill="black"/>
<path fill-rule="evenodd" clip-rule="evenodd" d="M530 0L513.436 33.7179L680 117L500.018 206.991C518.844 181.923 530 150.764 530 117C530 89.4605 522.578 63.6544 509.626 41.4726L401.967 260.62C399.956 264.641 396.939 267.844 392.916 270.231C389.019 272.744 384.683 274 379.906 274C375.255 274 370.918 272.744 366.895 270.231C362.998 267.844 359.981 264.641 357.844 260.62L250.358 41.5005C237.415 63.676 230 89.472 230 117C230 150.764 241.156 181.923 259.982 206.991L80 117L246.545 33.7276L230 0H284.871L379.906 194.664L475.317 0H530ZM415 102C415 121.33 399.33 137 380 137C360.67 137 345 121.33 345 102C345 82.67 360.67 67 380 67C399.33 67 415 82.67 415 102ZM368.5 82L376 89.5L368.5 97L361 89.5L368.5 82Z" fill="black"/>
</svg>
