<svg viewBox="0 0 600 274" fill="none" xmlns="http://www.w3.org/2000/svg" id="el_cWOuggacjbs"><style>@-webkit-keyframes el_Vq1a4NQIzBo_WTcCQnqF1_Animation{
0%{-webkit-transform: translate(300px, 137px) scale(1, 1) translate(-300px, -137px);transform: translate(300px, 137px) scale(1, 1) translate(-300px, -137px);}
50%{-webkit-transform: translate(300px, 137px) scale(0, 1) translate(-300px, -137px);transform: translate(300px, 137px) scale(0, 1) translate(-300px, -137px);}
100%{-webkit-transform: translate(300px, 137px) scale(1, 1) translate(-300px, -137px);transform: translate(300px, 137px) scale(1, 1) translate(-300px, -137px);}}
@keyframes el_Vq1a4NQIzBo_WTcCQnqF1_Animation{
0%{-webkit-transform: translate(300px, 137px) scale(1, 1) translate(-300px, -137px);transform: translate(300px, 137px) scale(1, 1) translate(-300px, -137px);}
50%{-webkit-transform: translate(300px, 137px) scale(0, 1) translate(-300px, -137px);transform: translate(300px, 137px) scale(0, 1) translate(-300px, -137px);}
100%{-webkit-transform: translate(300px, 137px) scale(1, 1) translate(-300px, -137px);transform: translate(300px, 137px) scale(1, 1) translate(-300px, -137px);}}
#el_cWOuggacjbs *{-webkit-animation-duration: 1s;animation-duration: 1s;-webkit-animation-iteration-count: infinite;animation-iteration-count: infinite;-webkit-animation-timing-function: cubic-bezier(0, 0, 1, 1);animation-timing-function: cubic-bezier(0, 0, 1, 1);}
#el_Vq1a4NQIzBo{fill: black;}
#el_Vq1a4NQIzBo_WTcCQnqF1{-webkit-animation-name: el_Vq1a4NQIzBo_WTcCQnqF1_Animation;animation-name: el_Vq1a4NQIzBo_WTcCQnqF1_Animation;-webkit-animation-timing-function: cubic-bezier(0.42, 0, 0.58, 1);animation-timing-function: cubic-bezier(0.42, 0, 0.58, 1);}</style>
<g id="el_Vq1a4NQIzBo_WTcCQnqF1" data-animator-group="true" data-animator-type="2"><path fill-rule="evenodd" clip-rule="evenodd" d="M450 0L433.436 33.7178L600 117L420.018 206.991C438.844 181.923 450 150.764 450 117C450 89.4604 442.578 63.6543 429.626 41.4727L321.967 260.62C319.956 264.641 316.939 267.844 312.916 270.231C309.02 272.744 304.683 274 299.906 274C295.255 274 290.918 272.744 286.895 270.231C282.998 267.844 279.981 264.641 277.844 260.62L170.358 41.5005C157.415 63.6763 150 89.4722 150 117C150 150.764 161.156 181.923 179.982 206.991L0 117L166.545 33.7275L150 0H204.871L299.906 194.665L395.317 0H450ZM335 102C335 121.33 319.33 137 300 137C280.67 137 265 121.33 265 102C265 82.6699 280.67 67 300 67C319.33 67 335 82.6699 335 102ZM288.5 82L296 89.5L288.5 97L281 89.5L288.5 82Z" id="el_Vq1a4NQIzBo"/></g>
</svg>