<svg width="606" height="453" viewBox="0 0 606 453" fill="none" xmlns="http://www.w3.org/2000/svg">
<path d="M139.875 325.375L97.4375 411.812C96.7708 413.146 95.7708 414.208 94.4375 415C93.1458 415.833 91.7083 416.25 90.125 416.25C88.5833 416.25 87.1458 415.833 85.8125 415C84.5208 414.208 83.5208 413.146 82.8125 411.812L40.4375 325.375H58.625L90.125 389.938L121.75 325.375H139.875ZM163.75 333.562H147.5V318.875H163.75V333.562ZM163.75 415H147.5V347.438H163.75V415ZM252.875 421.5C252.875 424.292 252.521 426.792 251.812 429C251.104 431.25 250.167 433.208 249 434.875C247.833 436.583 246.479 438.021 244.938 439.188C243.396 440.396 241.771 441.375 240.062 442.125C238.396 442.875 236.688 443.417 234.938 443.75C233.229 444.125 231.604 444.312 230.062 444.312H200.75V428.062H230.062C232.271 428.062 233.917 427.5 235 426.375C236.083 425.25 236.625 423.625 236.625 421.5V370.188C236.625 368.062 236.083 366.458 235 365.375C233.917 364.25 232.271 363.688 230.062 363.688H200.75C198.75 363.688 197.167 364.312 196 365.562C194.833 366.771 194.25 368.312 194.25 370.188V392.188C194.25 394.312 194.812 395.938 195.938 397.062C197.062 398.188 198.708 398.75 200.875 398.75H230.062V415H200.75C199.208 415 197.583 414.833 195.875 414.5C194.167 414.125 192.458 413.562 190.75 412.812C189.083 412.062 187.479 411.104 185.938 409.938C184.396 408.729 183.042 407.292 181.875 405.625C180.708 403.917 179.771 401.958 179.062 399.75C178.354 397.5 178 394.979 178 392.188V370.188C178 368.646 178.167 367.021 178.5 365.312C178.875 363.604 179.438 361.917 180.188 360.25C180.938 358.542 181.896 356.917 183.062 355.375C184.271 353.833 185.708 352.479 187.375 351.312C189.083 350.146 191.042 349.208 193.25 348.5C195.458 347.792 197.958 347.438 200.75 347.438H230.062C231.604 347.438 233.229 347.625 234.938 348C236.688 348.333 238.396 348.875 240.062 349.625C241.771 350.375 243.396 351.354 244.938 352.562C246.479 353.729 247.833 355.167 249 356.875C250.167 358.542 251.104 360.479 251.812 362.688C252.521 364.896 252.875 367.396 252.875 370.188V421.5ZM284.25 333.562H268V318.875H284.25V333.562ZM284.25 415H268V347.438H284.25V415ZM329.562 415H322.312C319.979 415 317.479 414.604 314.812 413.812C312.188 413.021 309.729 411.729 307.438 409.938C305.146 408.104 303.25 405.75 301.75 402.875C300.25 399.958 299.5 396.396 299.5 392.188V318.875H315.75V392.188C315.75 394.188 316.375 395.792 317.625 397C318.875 398.167 320.438 398.75 322.312 398.75H329.562V415ZM409.75 392.625C409.75 394.875 409.354 397.312 408.562 399.938C407.771 402.521 406.479 404.938 404.688 407.188C402.938 409.396 400.625 411.25 397.75 412.75C394.917 414.25 391.458 415 387.375 415H358.062C355.812 415 353.375 414.604 350.75 413.812C348.167 413.021 345.75 411.75 343.5 410C341.292 408.208 339.438 405.896 337.938 403.062C336.438 400.188 335.688 396.708 335.688 392.625C335.688 390.375 336.083 387.938 336.875 385.312C337.667 382.688 338.938 380.271 340.688 378.062C342.479 375.812 344.792 373.938 347.625 372.438C350.5 370.938 353.979 370.188 358.062 370.188H387.375V385.688H358.062C355.854 385.688 354.146 386.375 352.938 387.75C351.729 389.083 351.125 390.75 351.125 392.75C351.125 394.875 351.812 396.542 353.188 397.75C354.604 398.917 356.271 399.5 358.188 399.5H387.375C389.583 399.5 391.292 398.833 392.5 397.5C393.708 396.167 394.312 394.5 394.312 392.5V369.812C394.312 367.688 393.646 366 392.312 364.75C391.021 363.5 389.375 362.875 387.375 362.875H351.688V347.438H387.375C389.625 347.438 392.042 347.833 394.625 348.625C397.25 349.417 399.667 350.708 401.875 352.5C404.125 354.25 406 356.562 407.5 359.438C409 362.271 409.75 365.729 409.75 369.812V392.625ZM484.812 363.688H456.438V415H440V363.688H418.875V347.438H440V325.375H456.438V347.438H484.812V363.688ZM567.938 369.812C567.938 372.062 567.542 374.5 566.75 377.125C565.958 379.708 564.667 382.125 562.875 384.375C561.125 386.583 558.812 388.438 555.938 389.938C553.104 391.438 549.646 392.188 545.562 392.188H516.25V376.75H545.562C547.771 376.75 549.479 376.083 550.688 374.75C551.896 373.375 552.5 371.688 552.5 369.688C552.5 367.562 551.812 365.896 550.438 364.688C549.104 363.479 547.479 362.875 545.562 362.875H516.25C514.042 362.875 512.333 363.562 511.125 364.938C509.917 366.271 509.312 367.938 509.312 369.938V392.625C509.312 394.792 509.979 396.479 511.312 397.688C512.688 398.896 514.375 399.5 516.375 399.5H545.562V415H516.25C514 415 511.562 414.604 508.938 413.812C506.354 413.021 503.938 411.75 501.688 410C499.479 408.208 497.625 405.896 496.125 403.062C494.625 400.188 493.875 396.708 493.875 392.625V369.812C493.875 367.562 494.271 365.146 495.062 362.562C495.854 359.938 497.125 357.521 498.875 355.312C500.667 353.062 502.979 351.188 505.812 349.688C508.688 348.188 512.167 347.438 516.25 347.438H545.562C547.812 347.438 550.229 347.833 552.812 348.625C555.438 349.417 557.854 350.708 560.062 352.5C562.312 354.25 564.188 356.562 565.688 359.438C567.188 362.271 567.938 365.729 567.938 369.812Z" fill="black"/>
<path fill-rule="evenodd" clip-rule="evenodd" d="M450 0L433.436 33.7178L600 117L420.018 206.991C438.844 181.923 450 150.764 450 117C450 89.4604 442.578 63.6543 429.626 41.4727L321.967 260.62C319.956 264.641 316.939 267.844 312.916 270.231C309.02 272.744 304.683 274 299.906 274C295.255 274 290.918 272.744 286.895 270.231C282.998 267.844 279.981 264.641 277.844 260.62L170.358 41.5005C157.415 63.6763 150 89.4722 150 117C150 150.764 161.156 181.923 179.982 206.991L0 117L166.545 33.7275L150 0H204.871L299.906 194.665L395.317 0H450ZM335 102C335 121.33 319.33 137 300 137C280.67 137 265 121.33 265 102C265 82.6699 280.67 67 300 67C319.33 67 335 82.6699 335 102ZM288.5 82L296 89.5L288.5 97L281 89.5L288.5 82Z" fill="black"/>
</svg>
